<svg xmlns="http://www.w3.org/2000/svg" width="1024" height="1024" viewBox="0 0 120 120">
  
  
  <defs>
    <linearGradient id="bg" x1="0" y1="0" x2="0.35" y2="1">
      <stop offset="0" stop-color="#16181C"></stop>
      <stop offset="1" stop-color="#0B0C0E"></stop>
    </linearGradient>
  </defs>
  <rect width="120" height="120" fill="url(#bg)"></rect>
  
  <g stroke="#3A3F49" stroke-width="2.5">
    <line x1="10" y1="92" x2="110" y2="92"></line>
    <line x1="22" y1="92" x2="22" y2="82"></line>
    <line x1="41" y1="92" x2="41" y2="86"></line>
    <line x1="60" y1="92" x2="60" y2="82"></line>
    <line x1="98" y1="92" x2="98" y2="82"></line>
  </g>
  
  <line x1="79" y1="92" x2="79" y2="80" stroke="#FF7A1A" stroke-width="3.5"></line>
  
  <path d="M 14 66 Q 40 8 74 36" fill="none" stroke="rgba(255,122,26,.5)" stroke-width="5" stroke-linecap="round" stroke-dasharray="0.1 12"></path>
  
  <g transform="translate(74,36) rotate(64)" fill="#FF7A1A">
    <rect x="-11" y="-16" width="22" height="33" rx="3"></rect>
    <rect x="-6" y="-23" width="12" height="7" rx="1.5"></rect>
    <path d="M 5 -23 L 16 -19 L 14 14 L 9 13 Z"></path>
    <circle cx="-10" cy="-26" r="4.5" fill="none" stroke="#FF7A1A" stroke-width="3"></circle>
  </g>
</svg>